<svg width="19" height="23" viewBox="0 0 19 23" fill="none" xmlns="http://www.w3.org/2000/svg">
<path d="M13.8087 11.4995C13.8071 9.83375 14.1879 8.18946 14.9222 6.69115C15.6564 5.19283 16.7249 3.87975 18.0468 2.85132C16.4099 1.57582 14.4439 0.782603 12.3738 0.562336C10.3036 0.342069 8.21262 0.70363 6.33992 1.60571C4.46722 2.50779 2.88831 3.91398 1.78368 5.66356C0.679048 7.41314 0.0932617 9.4355 0.0932617 11.4995C0.0932617 13.5635 0.679048 15.5859 1.78368 17.3355C2.88831 19.085 4.46722 20.4912 6.33992 21.3933C8.21262 22.2954 10.3036 22.657 12.3738 22.4367C14.4439 22.2164 16.4099 21.4232 18.0468 20.1477C16.7249 19.1193 15.6564 17.8062 14.9222 16.3079C14.1879 14.8096 13.8071 13.1653 13.8087 11.4995Z" fill="#EB001B"/>
</svg>
