<svg width="18" height="23" viewBox="0 0 18 23" fill="none" xmlns="http://www.w3.org/2000/svg">
<path d="M18.0001 11.4995C18.0002 13.5635 17.4145 15.5858 16.3099 17.3354C15.2053 19.085 13.6265 20.4912 11.7538 21.3933C9.88113 22.2954 7.79022 22.657 5.72006 22.4367C3.64989 22.2164 1.68401 21.4232 0.0471191 20.1477C1.36781 19.1182 2.43549 17.8049 3.16963 16.3069C3.90378 14.8088 4.28524 13.165 4.28524 11.4995C4.28524 9.83401 3.90378 8.19024 3.16963 6.69216C2.43549 5.19408 1.36781 3.88079 0.0471191 2.85131C1.68401 1.57581 3.64989 0.782597 5.72006 0.562333C7.79022 0.342069 9.88113 0.703645 11.7538 1.60573C13.6265 2.50782 15.2053 3.91402 16.3099 5.66359C17.4145 7.41317 18.0002 9.43553 18.0001 11.4995Z" fill="#F79E1B"/>
</svg>
