<svg width="38" height="13" viewBox="0 0 38 13" fill="none" xmlns="http://www.w3.org/2000/svg">
<path d="M14.7273 0.421404L9.8182 12.6419H6.60608L4.18183 2.89084C4.06062 2.32097 3.8788 2.06769 3.45456 1.81441C2.72729 1.4345 1.51517 0.991272 0.484863 0.801315L0.545468 0.421404H5.69698C6.36365 0.421404 6.96971 0.864635 7.09093 1.68778L8.36365 8.77948L11.5152 0.484721H14.7273V0.421404ZM27.2727 8.65284C27.2727 5.42359 23.0303 5.23363 23.0303 3.84062C23.0303 3.39739 23.4546 2.95415 24.303 2.82751C24.7273 2.7642 25.9394 2.70088 27.2727 3.39738L27.8182 0.801315C27.0909 0.54804 26.1818 0.231445 24.9697 0.231445C22 0.231445 19.8788 1.87773 19.8788 4.28385C19.8788 6.05677 21.394 7.00655 22.5455 7.57642C23.697 8.14629 24.1212 8.52621 24.1212 9.09607C24.1212 9.91922 23.2121 10.2991 22.303 10.2991C20.7879 10.2991 19.8788 9.8559 19.2121 9.53931L18.6667 12.1987C19.394 12.5153 20.6667 12.8319 22 12.8319C25.1515 12.8319 27.2121 11.1856 27.2727 8.65284ZM35.1515 12.6419H37.9394L35.5152 0.421404H32.9091C32.303 0.421404 31.8182 0.801317 31.6364 1.30787L27.0909 12.6419H30.2424L30.8485 10.8057H34.7273L35.1515 12.6419ZM31.7576 8.33625L33.3334 3.7773L34.2424 8.33625H31.7576ZM19.0303 0.421404L16.5455 12.6419H13.5152L16 0.421404H19.0303Z" fill="#1A1F71"/>
</svg>
